<?xml version="1.0"?>
<svg xmlns="http://www.w3.org/2000/svg" viewBox="0 0 64 64" width="512" height="512"><g id="Layer_23" data-name="Layer 23"><path d="M60,41a3,3,0,0,0-2.82,2H51.82A24.91,24.91,0,0,0,52,40a26.41,26.41,0,0,0-.48-5h5.66a3,3,0,1,0,0-2H51.05a24.55,24.55,0,0,0-2.56-6H53a1,1,0,0,0,.71-.29l2-2a3,3,0,1,0-1.41-1.41L52.59,25H47.14A20.83,20.83,0,0,0,41,19.47V18a9,9,0,0,0-3.49-7.1l4.2-4.2A3,3,0,1,0,40.3,5.29L35.75,9.83a8.89,8.89,0,0,0-7.5,0L23.7,5.29A3,3,0,1,0,22.29,6.7l4.2,4.2A9,9,0,0,0,23,18v1.47A20.83,20.83,0,0,0,16.86,25H11.41L9.7,23.29A3,3,0,1,0,8.29,24.7l2,2A1,1,0,0,0,11,27h4.51A24.55,24.55,0,0,0,13,33H6.82a3,3,0,1,0,0,2h5.66A26.41,26.41,0,0,0,12,40a24.91,24.91,0,0,0,.18,3H6.82a3,3,0,1,0,0,2h5.67A25,25,0,0,0,15,52H11a1,1,0,0,0-.71.29l-2,2A3,3,0,1,0,9.7,55.71L11.41,54h4.74a21.36,21.36,0,0,0,4,4.52,1,1,0,0,0,.9.21,1,1,0,0,0,.68-.62A13.79,13.79,0,0,0,32,63a13.77,13.77,0,0,0,10.16-4.78,1,1,0,0,0,.67.61,1.15,1.15,0,0,0,.26,0,1,1,0,0,0,.64-.23A21.7,21.7,0,0,0,47.85,54h4.74l1.71,1.71a3,3,0,1,0,1.41-1.41l-2-2A1,1,0,0,0,53,52H49a25,25,0,0,0,2.47-7h5.67A3,3,0,1,0,60,41Zm0-8a1,1,0,1,1-1,1A1,1,0,0,1,60,33ZM57,21a1,1,0,1,1-1,1A1,1,0,0,1,57,21ZM43,3a1,1,0,1,1-1,1A1,1,0,0,1,43,3ZM20,4a1,1,0,1,1,1,1A1,1,0,0,1,20,4ZM6,22a1,1,0,1,1,1,1A1,1,0,0,1,6,22ZM4,35a1,1,0,1,1,1-1A1,1,0,0,1,4,35ZM4,45a1,1,0,1,1,1-1A1,1,0,0,1,4,45ZM7,58a1,1,0,1,1,1-1A1,1,0,0,1,7,58Zm51-1a1,1,0,1,1-1-1A1,1,0,0,1,58,57ZM25,18a7,7,0,0,1,14,0v.46a17.51,17.51,0,0,0-14,0Zm7,43c-3.54,0-6.88-1.8-9.47-5.06C25.43,48.08,30,36,32,30.84l9.37,25.24C38.78,59.25,35.49,61,32,61Zm11.52-4.87L32.94,27.65A1,1,0,0,0,32,27h0a1,1,0,0,0-.93.64C31,27.83,24.07,46,20.37,56A22.68,22.68,0,0,1,14,40c0-11.58,8.07-21,18-21s18,9.42,18,21A22.63,22.63,0,0,1,43.52,56.13ZM60,45a1,1,0,1,1,1-1A1,1,0,0,1,60,45Z"/></g></svg>
