<?xml version="1.0" encoding="utf-8"?>
<!-- Generator: Adobe Illustrator 21.0.0, SVG Export Plug-In . SVG Version: 6.00 Build 0)  -->
<svg version="1.1" id="Layer_1" xmlns="http://www.w3.org/2000/svg" xmlns:xlink="http://www.w3.org/1999/xlink" x="0px" y="0px"
	 viewBox="0 0 512 512" style="enable-background:new 0 0 512 512;" xml:space="preserve">
<style type="text/css">
	.st0{fill:#FFFFFF;}
</style>
<g id="Layer_23">
	<path class="st0" d="M480,328c-10.1,0-19.2,6.4-22.6,16h-42.9c1-8,1.4-16,1.4-24c0-13.4-1.3-26.8-3.8-40h45.3
		c4.4,12.5,18.1,19,30.6,14.6c12.5-4.4,19-18.1,14.6-30.6c-4.4-12.5-18.1-19-30.6-14.6c-6.8,2.4-12.2,7.8-14.6,14.6h-49
		c-4.7-16.8-11.5-33-20.5-48H424c2.1,0,4.2-0.8,5.7-2.3l16-16c12,5.7,26.3,0.7,32-11.3s0.7-26.3-11.3-32c-12-5.7-26.3-0.7-32,11.3
		c-3.1,6.6-3.1,14.2,0,20.7L420.7,200h-43.6c-13.3-17.9-30-32.9-49.1-44.2V144c0-22.2-10.3-43.2-27.9-56.8l33.6-33.6
		c12,5.7,26.3,0.7,32-11.3s0.7-26.3-11.3-32c-12-5.7-26.3-0.7-32,11.3c-3.1,6.6-3.1,14.2,0,20.7L286,78.6c-19-8.8-41-8.8-60,0
		l-36.4-36.3c5.7-12,0.7-26.3-11.3-32s-26.3-0.7-32,11.3c-5.7,12-0.7,26.3,11.3,32c6.6,3.1,14.2,3.1,20.7,0l33.6,33.6
		C194.3,100.8,184,121.8,184,144v11.8c-19.2,11.3-35.9,26.4-49.1,44.2H91.3l-13.7-13.7c5.7-12,0.7-26.3-11.3-32
		c-12-5.7-26.3-0.7-32,11.3s-0.7,26.3,11.3,32c6.6,3.1,14.2,3.1,20.7,0l16,16c1.5,1.5,3.5,2.4,5.7,2.4h36.1
		c-8.8,15-15.5,31.2-20.1,48H54.6c-4.4-12.5-18.1-19-30.6-14.6c-12.5,4.4-19,18.1-14.6,30.6s18.1,19,30.6,14.6
		c6.8-2.4,12.2-7.8,14.6-14.6h45.3c-2.5,13.2-3.8,26.6-3.8,40c0,8,0.5,16,1.4,24H54.6c-4.4-12.5-18.1-19-30.6-14.6
		S4.9,347.5,9.3,360s18.1,19,30.6,14.6c6.8-2.4,12.2-7.8,14.6-14.6h45.4c3.9,19.6,10.6,38.4,20.1,56H88c-2.1,0-4.2,0.8-5.7,2.3
		l-16,16c-11.9-5.8-26.3-0.7-32,11.2c-5.8,11.9-0.7,26.3,11.2,32c11.9,5.8,26.3,0.7,32-11.2c3.1-6.5,3.2-14.1,0.1-20.7L91.3,432
		h37.9c8.9,13.5,19.7,25.7,32,36.2c2,1.7,4.7,2.3,7.2,1.7c2.5-0.7,4.5-2.5,5.4-5c20.5,24.3,50.4,38.5,82.2,39.1
		c31.3-0.6,60.9-14.5,81.3-38.2c0.9,2.4,2.9,4.2,5.4,4.9c0.7,0.1,1.4,0.1,2.1,0c1.9,0,3.7-0.6,5.1-1.8c12.7-10.6,23.8-23,33-36.8
		h37.9l13.7,13.7c-5.7,12-0.7,26.3,11.3,32s26.3,0.7,32-11.3c5.7-12,0.7-26.3-11.3-32c-6.6-3.1-14.2-3.1-20.7,0l-16-16
		c-1.5-1.5-3.5-2.4-5.7-2.4h-32c9.3-17.6,16-36.5,19.8-56h45.4c4.4,12.5,18.1,19,30.6,14.6c12.5-4.4,19-18.1,14.6-30.6
		C499,334.5,490.1,328.1,480,328z M480,264c4.4,0,8,3.6,8,8s-3.6,8-8,8s-8-3.6-8-8S475.6,264,480,264z M456,168c4.4,0,8,3.6,8,8
		s-3.6,8-8,8s-8-3.6-8-8S451.6,168,456,168z M344,24c4.4,0,8,3.6,8,8s-3.6,8-8,8s-8-3.6-8-8S339.6,24,344,24z M160,32
		c0-4.4,3.6-8,8-8s8,3.6,8,8s-3.6,8-8,8S160,36.4,160,32z M48,176c0-4.4,3.6-8,8-8s8,3.6,8,8s-3.6,8-8,8S48,180.4,48,176z M32,280
		c-4.4,0-8-3.6-8-8s3.6-8,8-8s8,3.6,8,8S36.4,280,32,280z M32,360c-4.4,0-8-3.6-8-8s3.6-8,8-8s8,3.6,8,8S36.4,360,32,360z M56,464
		c-4.4,0-8-3.6-8-8s3.6-8,8-8s8,3.6,8,8S60.4,464,56,464z M464,456c0,4.4-3.6,8-8,8s-8-3.6-8-8s3.6-8,8-8S464,451.6,464,456z
		 M200,144c0-30.9,25.1-56,56-56s56,25.1,56,56v3.7c-35.7-15.6-76.3-15.6-112,0V144z M256,488c-28.3,0-55-14.4-75.8-40.5
		C203.4,384.6,240,288,256,246.7l75,201.9C310.2,474,283.9,488,256,488z M348.2,449l-84.6-227.8c-1.2-3.1-4.2-5.2-7.5-5.2l0,0
		c-3.3,0-6.3,2-7.4,5.1C248,222.6,192.6,368,163,448c-33.2-34.3-51.5-80.3-51-128c0-92.6,64.6-168,144-168s144,75.4,144,168
		C400.6,368.2,381.9,414.6,348.2,449z M480,360c-4.4,0-8-3.6-8-8s3.6-8,8-8s8,3.6,8,8S484.4,360,480,360z"/>
</g>
</svg>
