<?xml version="1.0" encoding="utf-8"?>
<!-- Generator: Adobe Illustrator 21.0.0, SVG Export Plug-In . SVG Version: 6.00 Build 0)  -->
<svg version="1.1" id="outline" xmlns="http://www.w3.org/2000/svg" xmlns:xlink="http://www.w3.org/1999/xlink" x="0px" y="0px"
	 viewBox="0 0 512 512" style="enable-background:new 0 0 512 512;" xml:space="preserve">
<style type="text/css">
	.st0{fill:#FFFFFF;}
</style>
<path class="st0" d="M32,144h304v16h16V64c0-8.8-7.2-16-16-16h-56v-4c0-15.5-12.5-28-28-28s-28,12.5-28,28v4h-8v-4
	c0-15.5-12.5-28-28-28s-28,12.5-28,28v4h-8v-4c0-15.5-12.5-28-28-28S96,28.5,96,44v4H32c-8.8,0-16,7.2-16,16v344c0,8.8,7.2,16,16,16
	h176v-16H32V144z M240,44c0-6.6,5.4-12,12-12s12,5.4,12,12v4h-24V44z M176,44c0-6.6,5.4-12,12-12s12,5.4,12,12v4h-24V44z M112,44
	c0-6.6,5.4-12,12-12c6.6,0,12,5.4,12,12v4h-24V44z M96,64v24h16V64h48v24h16V64h48v24h16V64h96v64H32V64H96z"/>
<path class="st0" d="M128,184c0-4.4-3.6-8-8-8H80c-4.4,0-8,3.6-8,8v40c0,4.4,3.6,8,8,8h40c4.4,0,8-3.6,8-8V184z M112,216H88v-24h24
	V216z"/>
<path class="st0" d="M200,176h-40c-4.4,0-8,3.6-8,8v40c0,4.4,3.6,8,8,8h40c4.4,0,8-3.6,8-8v-40C208,179.6,204.4,176,200,176z
	 M192,216h-24v-24h24V216z"/>
<path class="st0" d="M128,256c0-4.4-3.6-8-8-8H80c-4.4,0-8,3.6-8,8v40c0,4.4,3.6,8,8,8h40c4.4,0,8-3.6,8-8V256z M112,288H88v-24h24
	V288z"/>
<path class="st0" d="M200,248h-40c-4.4,0-8,3.6-8,8v40c0,4.4,3.6,8,8,8h40c4.4,0,8-3.6,8-8v-40C208,251.6,204.4,248,200,248z
	 M192,288h-24v-24h24V288z"/>
<path class="st0" d="M120,320H80c-4.4,0-8,3.6-8,8v40c0,4.4,3.6,8,8,8h40c4.4,0,8-3.6,8-8v-40C128,323.6,124.4,320,120,320z
	 M112,360H88v-24h24V360z"/>
<path class="st0" d="M200,320h-40c-4.4,0-8,3.6-8,8v40c0,4.4,3.6,8,8,8h40c4.4,0,8-3.6,8-8v-40C208,323.6,204.4,320,200,320z
	 M192,360h-24v-24h24V360z"/>
<path class="st0" d="M480,376h-16v-48c0-13.3-2.8-26.4-8.1-38.5l10.9-38.1c3.5-12.2,5.2-24.7,5.2-37.4V192c0-8.8-7.2-16-16-16h-32
	c-8.8,0-16,7.2-16,16v3.2c0,12.9-2.1,25.7-6.2,37.9l-1.5,4.5c-2.7-1-5.5-1.8-8.3-2.6V224c0-13.3-10.7-24-24-24s-24,10.7-24,24v11.2
	c-2.8,0.7-5.6,1.6-8.3,2.6l-1.5-4.5c-4.1-12.2-6.2-25.1-6.2-37.9V192c0-8.8-7.2-16-16-16h-32c-8.8,0-16,7.2-16,16v22.1
	c0,12.6,1.8,25.2,5.2,37.4l10.9,38.1c-5.3,12.1-8.1,25.2-8.1,38.5v48h-16c-8.8,0-16,7.2-16,16v80c0,13.2,10.8,24,24,24h208
	c13.2,0,24-10.8,24-24v-80C496,383.2,488.8,376,480,376z M480,392v16h-16v-16H480z M416,360h-96v-24h96V360z M320,376h96v48h-96V376
	z M432,336c0-8.8-7.2-16-16-16h-96c-8.8,0-16,7.2-16,16v88h-16v-96c0-44.2,35.8-80,80-80s80,35.8,80,80v96h-16V336z M417,238.2
	c4.6-13.9,7-28.4,7-43V192h32v22.1c0,11.1-1.6,22.2-4.6,33l-6.7,23.4c-8-10.7-18.1-19.6-29.7-26.1L417,238.2z M360,224
	c0-4.4,3.6-8,8-8s8,3.6,8,8v8.4c-2.6-0.2-5.3-0.4-8-0.4s-5.4,0.2-8,0.4V224z M284.6,247c-3.1-10.7-4.6-21.8-4.6-33V192h32v3.2
	c0,14.6,2.4,29.1,7,43l2,6.1c-11.6,6.6-21.7,15.5-29.7,26.1L284.6,247z M256,392h16v16h-16V392z M256,472v-48h16v56h-8
	C259.6,480,256,476.4,256,472z M288,440h160v40H288V440z M480,472c0,4.4-3.6,8-8,8h-8v-56h16V472z"/>
</svg>
