<?xml version="1.0" encoding="utf-8"?>
<!-- Generator: Adobe Illustrator 21.0.0, SVG Export Plug-In . SVG Version: 6.00 Build 0)  -->
<svg version="1.1" id="Capa_1" xmlns="http://www.w3.org/2000/svg" xmlns:xlink="http://www.w3.org/1999/xlink" x="0px" y="0px"
	 viewBox="0 0 98.8 98.8" style="enable-background:new 0 0 98.8 98.8;" xml:space="preserve">
<style type="text/css">
	.st0{fill:#2F54D4;}
</style>
<g>
	<g>
		<path class="st0" d="M2.1,57.2C7.3,76,20.3,89.6,32.9,89.6c1,0,2-0.1,3-0.3c0.6-0.1,1-0.4,1.3-0.9c0.3-0.5,0.4-1.1,0.2-1.6
			l-2.6-9.3c-0.3-0.9-1.1-1.5-2-1.5l-0.2,0c-4.7,0-13.2-7-17.5-22.5c-0.2-0.6-0.3-1.2-0.5-1.9c4.9,2.4,10.7,3,16,1.5
			c11.9-3.3,18.9-15.7,15.5-27.6C43.4,15.9,34.6,9.2,24.6,9.2c-2,0-4.1,0.3-6,0.8c-7.8,2.2-13.7,8.7-16.6,18.3
			C-0.7,37.1-0.6,47.6,2.1,57.2z"/>
		<path class="st0" d="M84.7,89.6c1,0,2-0.1,3-0.3c0.6-0.1,1-0.4,1.3-0.9c0.3-0.5,0.4-1.1,0.2-1.6l-2.6-9.3c-0.3-0.9-1.1-1.5-2-1.5
			l-0.2,0c-4.7,0-13.2-7-17.5-22.5c-0.2-0.6-0.3-1.3-0.5-1.9c4.9,2.4,10.7,3,16,1.5c11.9-3.3,18.9-15.7,15.5-27.6
			C95.3,15.9,86.4,9.2,76.4,9.2c-2,0-4.1,0.3-6,0.8c-7.8,2.2-13.7,8.7-16.6,18.3c-2.6,8.7-2.5,19.2,0.2,28.9
			C59.2,76,72.2,89.6,84.7,89.6z"/>
	</g>
</g>
</svg>
