<?xml version="1.0" encoding="utf-8"?>
<!-- Generator: Adobe Illustrator 21.0.0, SVG Export Plug-In . SVG Version: 6.00 Build 0)  -->
<svg version="1.1" id="Layer_1" xmlns="http://www.w3.org/2000/svg" xmlns:xlink="http://www.w3.org/1999/xlink" x="0px" y="0px"
	 viewBox="0 0 512 345.8" style="enable-background:new 0 0 512 345.8;" xml:space="preserve">
<style type="text/css">
	.st0{fill:#2F55D4;}
</style>
<g>
	<g>
		<path class="st0" d="M394.8,189v-23.4h32.1L263.6,49.3v-6.5h56.2V0h-71.4v7.6v35.2v6.5L85.1,165.6h32.1V189H0v156.8h117.2h15.2h56
			h135h56h15.2H512V189H394.8z M263.6,15.2h41v12.4h-41V15.2z M117.2,330.5h-102V204.2h102V330.5z M256,62.6l123.3,87.8H132.7
			L256,62.6z M148.3,330.5h-15.9V189v0h15.9V330.5z M188.4,330.5h-24.8V189h24.8V330.5z M308.3,330.5H203.7v-43.3h104.6V330.5z
			 M203.6,272V189h24.8V272H203.6z M243.6,272V189h24.8V272H243.6z M308.4,272h-24.8V189h24.8V272z M348.5,330.5h-24.8V189h24.8
			V330.5z M379.5,189v141.6h-15.9V189L379.5,189L379.5,189z M379.5,173.8H132.5v-8.2h247.1V173.8z M496.8,330.5h-102V204.2h102
			V330.5z"/>
	</g>
</g>
<g>
	<g>
		<path class="st0" d="M256,89c-13.6,0-24.7,11.1-24.7,24.7s11.1,24.7,24.7,24.7c13.6,0,24.7-11.1,24.7-24.7S269.6,89,256,89z
			 M256,123.3c-5.3,0-9.5-4.3-9.5-9.5c0-5.3,4.3-9.5,9.5-9.5s9.5,4.3,9.5,9.5C265.5,119,261.3,123.3,256,123.3z"/>
	</g>
</g>
<g>
	<g>
		<rect x="407.1" y="217.4" class="st0" width="15.2" height="21.3"/>
	</g>
</g>
<g>
	<g>
		<rect x="438.2" y="217.4" class="st0" width="15.2" height="21.3"/>
	</g>
</g>
<g>
	<g>
		<rect x="469.2" y="217.4" class="st0" width="15.2" height="21.3"/>
	</g>
</g>
<g>
	<g>
		<rect x="407.1" y="256.9" class="st0" width="15.2" height="21.3"/>
	</g>
</g>
<g>
	<g>
		<rect x="438.2" y="256.9" class="st0" width="15.2" height="21.3"/>
	</g>
</g>
<g>
	<g>
		<rect x="469.2" y="256.9" class="st0" width="15.2" height="21.3"/>
	</g>
</g>
<g>
	<g>
		<rect x="407.1" y="296.4" class="st0" width="15.2" height="21.3"/>
	</g>
</g>
<g>
	<g>
		<rect x="438.2" y="296.4" class="st0" width="15.2" height="21.3"/>
	</g>
</g>
<g>
	<g>
		<rect x="469.2" y="296.4" class="st0" width="15.2" height="21.3"/>
	</g>
</g>
<g>
	<g>
		<rect x="89" y="217.4" class="st0" width="15.2" height="21.3"/>
	</g>
</g>
<g>
	<g>
		<rect x="58" y="217.4" class="st0" width="15.2" height="21.3"/>
	</g>
</g>
<g>
	<g>
		<rect x="26.9" y="217.4" class="st0" width="15.2" height="21.3"/>
	</g>
</g>
<g>
	<g>
		<rect x="89" y="256.9" class="st0" width="15.2" height="21.3"/>
	</g>
</g>
<g>
	<g>
		<rect x="58" y="256.9" class="st0" width="15.2" height="21.3"/>
	</g>
</g>
<g>
	<g>
		<rect x="26.9" y="256.9" class="st0" width="15.2" height="21.3"/>
	</g>
</g>
<g>
	<g>
		<rect x="89" y="296.4" class="st0" width="15.2" height="21.3"/>
	</g>
</g>
<g>
	<g>
		<rect x="58" y="296.4" class="st0" width="15.2" height="21.3"/>
	</g>
</g>
<g>
	<g>
		<rect x="26.9" y="296.4" class="st0" width="15.2" height="21.3"/>
	</g>
</g>
</svg>
