<?xml version="1.0" encoding="utf-8"?>
<!-- Generator: Adobe Illustrator 21.0.0, SVG Export Plug-In . SVG Version: 6.00 Build 0)  -->
<svg version="1.1" id="Layer_1" xmlns="http://www.w3.org/2000/svg" xmlns:xlink="http://www.w3.org/1999/xlink" x="0px" y="0px"
	 viewBox="0 0 512 512" style="enable-background:new 0 0 512 512;" xml:space="preserve">
<style type="text/css">
	.st0{fill:#FFFFFF;}
</style>
<path class="st0" d="M474.5,291.3v-42.5c0-4.5-3.6-8.1-8.1-8.1h-10.8V93.9l13.3-4.5c4.2-1.4,6.5-6,5.1-10.2
	c-0.8-2.4-2.7-4.3-5.1-5.1L258.6,3.4c-1.7-0.6-3.5-0.6-5.1,0L43,74c-4.2,1.4-6.5,6-5.1,10.2c0.8,2.4,2.7,4.3,5.1,5.1l68.6,23V238
	c0,5.2,0,13,46.6,21.3c32.3,5.5,65,8.1,97.8,8c32.8,0.1,65.5-2.5,97.8-8c46.6-8.3,46.6-16.1,46.6-21.3V112.4l39.1-13.1v141.4h-10.8
	c-4.5,0-8.1,3.6-8.1,8.1v40.7H47.3c-0.2,0-0.4,0-0.7,0.1C22.1,290.1,3,322.5,3,363.8c0,41.2,19,73.5,43.4,74.2
	c0.3,0,0.6,0.1,0.9,0.1h149.6L173.5,498c-1.6,4.2,0.4,8.9,4.6,10.5c2.3,0.9,5,0.7,7.1-0.6l26.5-16.1l10,13.9c1.5,2.1,4,3.4,6.6,3.4
	c0.3,0,0.7,0,1-0.1c2.9-0.4,5.4-2.3,6.5-5.1l20.2-51.6l20.2,51.6c1.1,2.8,3.6,4.7,6.5,5.1c0.3,0,0.7,0.1,1,0.1c2.6,0,5-1.3,6.6-3.4
	l10-13.9l26.5,16.1c3.8,2.3,8.8,1.1,11.1-2.7c1.3-2.2,1.5-4.8,0.6-7.1l-23.4-59.8h149.6c24.8,0,44.3-32.6,44.3-74.3
	C509,327.9,494.6,298.6,474.5,291.3L474.5,291.3z M256,19.6l185,62.1l-185,62.1L71,81.7L256,19.6z M384.2,234.8
	c-11.1,5.6-61,16.3-128.2,16.3s-117.1-10.7-128.2-16.3v-117L253.4,160c1.7,0.6,3.5,0.6,5.1,0l125.6-42.2V234.8z M436.8,256.9h21.5
	V309l-5.5-4.8c-3-2.7-7.6-2.7-10.7,0l-5.4,4.8L436.8,256.9z M305.5,363.8c0,34.3-14.8,58.2-28.1,58.2h-14.9
	c10.1-13.5,16.4-34.3,16.4-58.2s-6.4-44.6-16.4-58.1h14.9C290.7,305.7,305.5,329.6,305.5,363.8z M75.1,422
	c10.1-13.5,16.5-34.3,16.5-58.2s-6.4-44.6-16.5-58.1h159.5c13.3,0,28.1,23.9,28.1,58.1S247.9,422,234.6,422H75.1z M51.5,371.9h23.6
	c-1.8,25.8-12.1,44.3-22.8,48.9C42.3,393.4,48.2,377.7,51.5,371.9z M19.2,363.8c0-34.3,14.8-58.1,28.1-58.1
	c12.2,0,25.7,20.2,27.8,50H47.3c-2.3,0-4.4,0.9-5.9,2.6c-0.8,0.9-16.7,18.8-8,55.2C25.4,403.7,19.2,386,19.2,363.8z M226.2,484.1
	l-5.7-7.9c-2.5-3.4-7.2-4.4-10.8-2.2l-12.4,7.6l17-43.4h29.9L226.2,484.1z M314.7,481.6l-12.4-7.6c-3.6-2.2-8.3-1.2-10.8,2.2
	l-5.7,7.9l-18-46h29.9L314.7,481.6z M464.7,422H305.2c10.1-13.5,16.4-34.3,16.4-58.2s-6.4-44.6-16.4-58.1h115.4v21.2
	c0,4.5,3.6,8.1,8.1,8.1c1.9,0,3.8-0.7,5.3-2l13.5-11.9l13.5,11.9c3.4,2.9,8.5,2.6,11.4-0.8c1.3-1.5,2-3.3,2-5.3v-17.1
	c9.9,8.2,18.3,28.2,18.3,54.1C492.8,398.1,478,422,464.7,422L464.7,422z"/>
</svg>
